<svg width="78" height="78" viewBox="0 0 78 78" fill="none" xmlns="http://www.w3.org/2000/svg">
<path d="M47.4825 44.265L26.3737 53.43L65.3006 14.5031L47.4825 44.265Z" fill="url(#paint0_linear_3_7)"/>
<path d="M57.0375 53.6981L26.3737 53.43L47.4825 44.265L57.0375 53.6981Z" fill="url(#paint1_linear_3_7)"/>
<path d="M66.3244 44.4112L57.0375 53.6981L47.4825 44.265L66.3244 44.4112Z" fill="url(#paint2_linear_3_7)"/>
<path d="M66.3244 44.4113L54.0638 37.6838L55.8675 35.88L61.3763 35.8069L66.3244 44.4113Z" fill="url(#paint3_linear_3_7)"/>
<path d="M65.52 26.2275L47.4825 44.265L65.3006 14.5031L65.52 26.2275Z" fill="url(#paint4_linear_3_7)"/>
<path d="M66.3244 44.4113L47.4825 44.265L54.0638 37.6838L66.3244 44.4113Z" fill="url(#paint5_linear_3_7)"/>
<path d="M30.5175 33.735L51.6262 24.57L12.6994 63.4969L30.5175 33.735Z" fill="url(#paint6_linear_3_7)"/>
<path d="M20.9625 24.3019L51.6263 24.57L30.5175 33.735L20.9625 24.3019Z" fill="url(#paint7_linear_3_7)"/>
<path d="M11.6756 33.5887L20.9625 24.3019L30.5175 33.735L11.6756 33.5887Z" fill="url(#paint8_linear_3_7)"/>
<path d="M11.6756 33.5887L23.9363 40.3162L22.1325 42.12L16.6238 42.1931L11.6756 33.5887Z" fill="url(#paint9_linear_3_7)"/>
<path d="M12.48 51.7725L30.5175 33.735L12.6994 63.4969L12.48 51.7725Z" fill="url(#paint10_linear_3_7)"/>
<path d="M11.6756 33.5887L30.5175 33.735L23.9363 40.3162L11.6756 33.5887Z" fill="url(#paint11_linear_3_7)"/>
<defs>
<linearGradient id="paint0_linear_3_7" x1="30.3557" y1="55.6322" x2="65.8441" y2="18.9718" gradientUnits="userSpaceOnUse">
<stop stop-color="#4C30FF"/>
<stop offset="1" stop-color="#CCB5FF"/>
</linearGradient>
<linearGradient id="paint1_linear_3_7" x1="57.8467" y1="49.6858" x2="26.5294" y2="48.4276" gradientUnits="userSpaceOnUse">
<stop stop-color="#4C30FF"/>
<stop offset="1" stop-color="#CCB5FF"/>
</linearGradient>
<linearGradient id="paint2_linear_3_7" x1="63.1898" y1="50.0306" x2="50.194" y2="41.6885" gradientUnits="userSpaceOnUse">
<stop stop-color="#4C30FF"/>
<stop offset="1" stop-color="#CCB5FF"/>
</linearGradient>
<linearGradient id="paint3_linear_3_7" x1="73.3244" y1="44.5151" x2="39.6802" y2="28.8996" gradientUnits="userSpaceOnUse">
<stop stop-color="#CBABF8"/>
<stop offset="0.07" stop-color="#AF8FE8"/>
<stop offset="0.22" stop-color="#8061CF"/>
<stop offset="0.34" stop-color="#5E3FBC"/>
<stop offset="0.45" stop-color="#492BB1"/>
<stop offset="0.52" stop-color="#4224AD"/>
<stop offset="0.59" stop-color="#4624AF"/>
<stop offset="0.67" stop-color="#5426B6"/>
<stop offset="0.76" stop-color="#6B2AC2"/>
<stop offset="0.85" stop-color="#8B2ED3"/>
<stop offset="0.94" stop-color="#B434E9"/>
<stop offset="1" stop-color="#D139F8"/>
</linearGradient>
<linearGradient id="paint4_linear_3_7" x1="67.1023" y1="15.335" x2="51.7969" y2="44.0498" gradientUnits="userSpaceOnUse">
<stop stop-color="#4C30FF"/>
<stop offset="1" stop-color="#CCB5FF"/>
</linearGradient>
<linearGradient id="paint5_linear_3_7" x1="42.2828" y1="40.4647" x2="75.2375" y2="42.3951" gradientUnits="userSpaceOnUse">
<stop stop-color="#CBABF8"/>
<stop offset="0.02" stop-color="#C2A2F3"/>
<stop offset="0.09" stop-color="#9B7BDD"/>
<stop offset="0.17" stop-color="#7A5BCC"/>
<stop offset="0.25" stop-color="#6143BE"/>
<stop offset="0.33" stop-color="#5031B4"/>
<stop offset="0.42" stop-color="#4527AE"/>
<stop offset="0.52" stop-color="#4224AD"/>
<stop offset="0.59" stop-color="#4624AF"/>
<stop offset="0.67" stop-color="#5426B6"/>
<stop offset="0.76" stop-color="#6B2AC2"/>
<stop offset="0.85" stop-color="#8B2ED3"/>
<stop offset="0.94" stop-color="#B434E9"/>
<stop offset="1" stop-color="#D139F8"/>
</linearGradient>
<linearGradient id="paint6_linear_3_7" x1="47.6337" y1="22.3721" x2="12.1626" y2="59.0152" gradientUnits="userSpaceOnUse">
<stop stop-color="#0061FF"/>
<stop offset="1" stop-color="#5FFFFF"/>
</linearGradient>
<linearGradient id="paint7_linear_3_7" x1="20.1427" y1="28.3184" x2="51.46" y2="29.5766" gradientUnits="userSpaceOnUse">
<stop stop-color="#0061FF"/>
<stop offset="1" stop-color="#5FFEFF"/>
</linearGradient>
<linearGradient id="paint8_linear_3_7" x1="14.8341" y1="27.9737" x2="27.8126" y2="36.2985" gradientUnits="userSpaceOnUse">
<stop stop-color="#0061FF"/>
<stop offset="1" stop-color="#5FFEFF"/>
</linearGradient>
<linearGradient id="paint9_linear_3_7" x1="4.68228" y1="33.5063" x2="38.3092" y2="49.1047" gradientUnits="userSpaceOnUse">
<stop stop-color="#80D8F8"/>
<stop offset="0.11" stop-color="#5FABE2"/>
<stop offset="0.24" stop-color="#3D7CCC"/>
<stop offset="0.36" stop-color="#245ABC"/>
<stop offset="0.45" stop-color="#1545B2"/>
<stop offset="0.52" stop-color="#103EAF"/>
<stop offset="0.6" stop-color="#143FB1"/>
<stop offset="0.69" stop-color="#2244BA"/>
<stop offset="0.78" stop-color="#394CC8"/>
<stop offset="0.88" stop-color="#5958DB"/>
<stop offset="0.99" stop-color="#8266F4"/>
<stop offset="1" stop-color="#8969F8"/>
</linearGradient>
<linearGradient id="paint10_linear_3_7" x1="10.9044" y1="62.6519" x2="26.2269" y2="33.9545" gradientUnits="userSpaceOnUse">
<stop stop-color="#0061FF"/>
<stop offset="1" stop-color="#5FFEFF"/>
</linearGradient>
<linearGradient id="paint11_linear_3_7" x1="35.7238" y1="37.5223" x2="2.76911" y2="35.5919" gradientUnits="userSpaceOnUse">
<stop stop-color="#80D8F8"/>
<stop offset="0.04" stop-color="#6DBEEB"/>
<stop offset="0.11" stop-color="#5097D9"/>
<stop offset="0.18" stop-color="#3976C9"/>
<stop offset="0.26" stop-color="#275DBE"/>
<stop offset="0.34" stop-color="#1A4BB5"/>
<stop offset="0.42" stop-color="#1241B0"/>
<stop offset="0.52" stop-color="#103EAF"/>
<stop offset="0.6" stop-color="#143FB1"/>
<stop offset="0.69" stop-color="#2244BA"/>
<stop offset="0.78" stop-color="#394CC8"/>
<stop offset="0.88" stop-color="#5958DB"/>
<stop offset="0.99" stop-color="#8266F4"/>
<stop offset="1" stop-color="#8969F8"/>
</linearGradient>
</defs>
</svg>
